<mxfile host="app.diagrams.net" modified="2022-05-30T11:19:13.268Z" agent="5.0 (Windows NT 6.1; Win64; x64) AppleWebKit/537.36 (KHTML, like Gecko) Chrome/100.0.4896.127 Safari/537.36 OPR/86.0.4363.59 (Edition Yx 05)" etag="KUjb5b-vVX_9FtlqDWEp" version="18.1.3" type="github">
  <diagram id="C5RBs43oDa-KdzZeNtuy" name="Page-1">
    <mxGraphModel dx="742" dy="735" grid="1" gridSize="10" guides="1" tooltips="1" connect="1" arrows="1" fold="1" page="1" pageScale="1" pageWidth="827" pageHeight="1169" math="0" shadow="0">
      <root>
        <mxCell id="WIyWlLk6GJQsqaUBKTNV-0" />
        <mxCell id="WIyWlLk6GJQsqaUBKTNV-1" parent="WIyWlLk6GJQsqaUBKTNV-0" />
        <mxCell id="C-mkIYTrHOIJWP9ktgJM-9" value="" style="whiteSpace=wrap;html=1;aspect=fixed;fontStyle=1" vertex="1" parent="WIyWlLk6GJQsqaUBKTNV-1">
          <mxGeometry x="290" y="80" width="80" height="80" as="geometry" />
        </mxCell>
        <mxCell id="C-mkIYTrHOIJWP9ktgJM-0" value="" style="rounded=1;whiteSpace=wrap;html=1;" vertex="1" parent="WIyWlLk6GJQsqaUBKTNV-1">
          <mxGeometry x="60" y="240" width="200" height="320" as="geometry" />
        </mxCell>
        <mxCell id="C-mkIYTrHOIJWP9ktgJM-1" value="" style="rounded=1;whiteSpace=wrap;html=1;" vertex="1" parent="WIyWlLk6GJQsqaUBKTNV-1">
          <mxGeometry x="390" y="240" width="200" height="320" as="geometry" />
        </mxCell>
        <mxCell id="C-mkIYTrHOIJWP9ktgJM-2" value="" style="shape=flexArrow;endArrow=classic;html=1;rounded=0;endWidth=6;endSize=5.56;exitX=0.995;exitY=0.212;exitDx=0;exitDy=0;exitPerimeter=0;entryX=-0.005;entryY=0.212;entryDx=0;entryDy=0;entryPerimeter=0;" edge="1" parent="WIyWlLk6GJQsqaUBKTNV-1" source="C-mkIYTrHOIJWP9ktgJM-0" target="C-mkIYTrHOIJWP9ktgJM-1">
          <mxGeometry width="50" height="50" relative="1" as="geometry">
            <mxPoint x="271" y="192" as="sourcePoint" />
            <mxPoint x="380" y="190" as="targetPoint" />
          </mxGeometry>
        </mxCell>
        <mxCell id="C-mkIYTrHOIJWP9ktgJM-4" value="" style="shape=flexArrow;endArrow=classic;html=1;rounded=0;endWidth=6;endSize=5.56;exitX=0;exitY=0.716;exitDx=0;exitDy=0;exitPerimeter=0;entryX=1.005;entryY=0.712;entryDx=0;entryDy=0;entryPerimeter=0;" edge="1" parent="WIyWlLk6GJQsqaUBKTNV-1" source="C-mkIYTrHOIJWP9ktgJM-1" target="C-mkIYTrHOIJWP9ktgJM-0">
          <mxGeometry width="50" height="50" relative="1" as="geometry">
            <mxPoint x="378" y="421" as="sourcePoint" />
            <mxPoint x="260" y="420" as="targetPoint" />
          </mxGeometry>
        </mxCell>
        <mxCell id="C-mkIYTrHOIJWP9ktgJM-5" value="" style="shape=cylinder3;whiteSpace=wrap;html=1;boundedLbl=1;backgroundOutline=1;size=15;" vertex="1" parent="WIyWlLk6GJQsqaUBKTNV-1">
          <mxGeometry x="300" y="10" width="60" height="80" as="geometry" />
        </mxCell>
        <mxCell id="C-mkIYTrHOIJWP9ktgJM-6" value="" style="ellipse;whiteSpace=wrap;html=1;" vertex="1" parent="WIyWlLk6GJQsqaUBKTNV-1">
          <mxGeometry x="290" y="45" width="30" height="10" as="geometry" />
        </mxCell>
        <mxCell id="C-mkIYTrHOIJWP9ktgJM-7" value="" style="ellipse;whiteSpace=wrap;html=1;" vertex="1" parent="WIyWlLk6GJQsqaUBKTNV-1">
          <mxGeometry x="340" y="45" width="30" height="10" as="geometry" />
        </mxCell>
        <mxCell id="C-mkIYTrHOIJWP9ktgJM-8" value="" style="shape=xor;whiteSpace=wrap;html=1;rotation=90;" vertex="1" parent="WIyWlLk6GJQsqaUBKTNV-1">
          <mxGeometry x="317.5" y="40" width="25" height="75" as="geometry" />
        </mxCell>
        <mxCell id="C-mkIYTrHOIJWP9ktgJM-10" value="" style="shape=actor;whiteSpace=wrap;html=1;" vertex="1" parent="WIyWlLk6GJQsqaUBKTNV-1">
          <mxGeometry x="80" y="130" width="40" height="60" as="geometry" />
        </mxCell>
        <mxCell id="C-mkIYTrHOIJWP9ktgJM-11" value="" style="shape=actor;whiteSpace=wrap;html=1;" vertex="1" parent="WIyWlLk6GJQsqaUBKTNV-1">
          <mxGeometry x="540" y="130" width="40" height="60" as="geometry" />
        </mxCell>
        <mxCell id="C-mkIYTrHOIJWP9ktgJM-13" value="&lt;span style=&quot;color: rgb(0, 0, 0); font-family: Helvetica; font-style: normal; font-variant-ligatures: normal; font-variant-caps: normal; letter-spacing: normal; orphans: 2; text-align: center; text-indent: 0px; text-transform: none; widows: 2; word-spacing: 0px; -webkit-text-stroke-width: 0px; background-color: rgb(248, 249, 250); text-decoration-thickness: initial; text-decoration-style: initial; text-decoration-color: initial; float: none; display: inline !important;&quot;&gt;&lt;b style=&quot;&quot;&gt;&lt;font style=&quot;font-size: 24px;&quot;&gt;Коля&lt;/font&gt;&lt;/b&gt;&lt;/span&gt;" style="text;whiteSpace=wrap;html=1;" vertex="1" parent="WIyWlLk6GJQsqaUBKTNV-1">
          <mxGeometry x="80" y="200" width="90" height="30" as="geometry" />
        </mxCell>
        <mxCell id="C-mkIYTrHOIJWP9ktgJM-14" value="&lt;span style=&quot;color: rgb(0, 0, 0); font-family: Helvetica; font-style: normal; font-variant-ligatures: normal; font-variant-caps: normal; letter-spacing: normal; orphans: 2; text-align: center; text-indent: 0px; text-transform: none; widows: 2; word-spacing: 0px; -webkit-text-stroke-width: 0px; background-color: rgb(248, 249, 250); text-decoration-thickness: initial; text-decoration-style: initial; text-decoration-color: initial; float: none; display: inline !important;&quot;&gt;&lt;b style=&quot;&quot;&gt;&lt;font style=&quot;font-size: 24px;&quot;&gt;Ваня&lt;/font&gt;&lt;/b&gt;&lt;/span&gt;" style="text;whiteSpace=wrap;html=1;" vertex="1" parent="WIyWlLk6GJQsqaUBKTNV-1">
          <mxGeometry x="515" y="200" width="90" height="30" as="geometry" />
        </mxCell>
        <mxCell id="C-mkIYTrHOIJWP9ktgJM-15" value="&lt;span style=&quot;color: rgb(0, 0, 0); font-family: Helvetica; font-style: normal; font-variant-ligatures: normal; font-variant-caps: normal; letter-spacing: normal; orphans: 2; text-align: center; text-indent: 0px; text-transform: none; widows: 2; word-spacing: 0px; -webkit-text-stroke-width: 0px; background-color: rgb(248, 249, 250); text-decoration-thickness: initial; text-decoration-style: initial; text-decoration-color: initial; float: none; display: inline !important;&quot;&gt;&lt;b style=&quot;&quot;&gt;&lt;font style=&quot;font-size: 24px;&quot;&gt;Хакер&lt;/font&gt;&lt;/b&gt;&lt;/span&gt;" style="text;whiteSpace=wrap;html=1;" vertex="1" parent="WIyWlLk6GJQsqaUBKTNV-1">
          <mxGeometry x="290" y="160" width="90" height="30" as="geometry" />
        </mxCell>
        <mxCell id="C-mkIYTrHOIJWP9ktgJM-16" value="a,g,p&amp;nbsp;" style="text;strokeColor=none;fillColor=none;html=1;fontSize=24;fontStyle=1;verticalAlign=middle;align=left;labelBackgroundColor=#C2FFD2;labelBorderColor=default;" vertex="1" parent="WIyWlLk6GJQsqaUBKTNV-1">
          <mxGeometry x="290" y="240" width="100" height="40" as="geometry" />
        </mxCell>
        <mxCell id="C-mkIYTrHOIJWP9ktgJM-17" value="Алгоритм Диффи -&lt;br&gt;&amp;nbsp;Хеллмана" style="text;strokeColor=none;fillColor=none;html=1;fontSize=24;fontStyle=1;verticalAlign=middle;align=center;" vertex="1" parent="WIyWlLk6GJQsqaUBKTNV-1">
          <mxGeometry x="415" y="20" width="305" height="40" as="geometry" />
        </mxCell>
        <UserObject label="&lt;b&gt;Публичные числа&lt;/b&gt;" placeholders="1" name="Variable" id="C-mkIYTrHOIJWP9ktgJM-18">
          <mxCell style="text;html=1;strokeColor=none;fillColor=none;align=center;verticalAlign=middle;whiteSpace=wrap;overflow=hidden;labelBackgroundColor=#C2FFD2;labelBorderColor=default;fontSize=14;" vertex="1" parent="WIyWlLk6GJQsqaUBKTNV-1">
            <mxGeometry x="277.5" y="380" width="100" height="40" as="geometry" />
          </mxCell>
        </UserObject>
        <mxCell id="C-mkIYTrHOIJWP9ktgJM-19" value="B&amp;nbsp;" style="text;strokeColor=none;fillColor=none;html=1;fontSize=24;fontStyle=1;verticalAlign=middle;align=left;labelBackgroundColor=#C2FFD2;labelBorderColor=default;" vertex="1" parent="WIyWlLk6GJQsqaUBKTNV-1">
          <mxGeometry x="315" y="480" width="25" height="40" as="geometry" />
        </mxCell>
        <UserObject label="&#xa;Генерируется публичное&#xa;число a&#xa;Затем Коля пересылает&#xa; Ване, остаток своего числа&#xa;деленного по модулю p" placeholders="1" name="Variable" id="C-mkIYTrHOIJWP9ktgJM-21">
          <mxCell style="text;strokeColor=none;fillColor=none;align=center;verticalAlign=top;overflow=hidden;labelBackgroundColor=#C2FFD2;labelBorderColor=none;fontSize=14;spacing=0;labelPosition=center;verticalLabelPosition=middle;textDirection=ltr;fontStyle=0" vertex="1" parent="WIyWlLk6GJQsqaUBKTNV-1">
            <mxGeometry x="50" y="230" width="220" height="110" as="geometry" />
          </mxCell>
        </UserObject>
        <mxCell id="C-mkIYTrHOIJWP9ktgJM-22" value="знает&lt;br&gt;g, p" style="shape=tapeData;whiteSpace=wrap;html=1;perimeter=ellipsePerimeter;labelBackgroundColor=#C2FFD2;labelBorderColor=none;fontSize=14;" vertex="1" parent="WIyWlLk6GJQsqaUBKTNV-1">
          <mxGeometry x="10" y="50" width="80" height="80" as="geometry" />
        </mxCell>
        <mxCell id="C-mkIYTrHOIJWP9ktgJM-23" value="знает&lt;br&gt;g, p" style="shape=tapeData;whiteSpace=wrap;html=1;perimeter=ellipsePerimeter;labelBackgroundColor=#C2FFD2;labelBorderColor=none;fontSize=14;" vertex="1" parent="WIyWlLk6GJQsqaUBKTNV-1">
          <mxGeometry x="445" y="80" width="80" height="80" as="geometry" />
        </mxCell>
        <UserObject label="&#xa;Генерируется публичное&#xa;число b&#xa;Затем Коля пересылает&#xa; Ване, остаток своего числа&#xa;деленного по модулю p" placeholders="1" name="Variable" id="C-mkIYTrHOIJWP9ktgJM-25">
          <mxCell style="text;strokeColor=none;fillColor=none;align=center;verticalAlign=top;overflow=hidden;labelBackgroundColor=#C2FFD2;labelBorderColor=none;fontSize=14;spacing=0;labelPosition=center;verticalLabelPosition=middle;textDirection=ltr;fontStyle=0" vertex="1" parent="WIyWlLk6GJQsqaUBKTNV-1">
            <mxGeometry x="380" y="230" width="220" height="110" as="geometry" />
          </mxCell>
        </UserObject>
        <UserObject label="&lt;font style=&quot;font-size: 18px;&quot;&gt;A = g&lt;sup&gt;a&lt;/sup&gt;&amp;nbsp;mod p&lt;sup&gt;&amp;nbsp;&lt;/sup&gt;&lt;/font&gt;" placeholders="1" name="Variable" id="C-mkIYTrHOIJWP9ktgJM-26">
          <mxCell style="text;strokeColor=none;fillColor=none;align=center;verticalAlign=top;overflow=hidden;labelBackgroundColor=none;labelBorderColor=none;fontSize=14;spacing=0;labelPosition=center;verticalLabelPosition=middle;textDirection=ltr;fontStyle=1;html=1;" vertex="1" parent="WIyWlLk6GJQsqaUBKTNV-1">
            <mxGeometry x="50" y="340" width="220" height="30" as="geometry" />
          </mxCell>
        </UserObject>
        <UserObject label="&lt;font style=&quot;font-size: 18px;&quot;&gt;A = g&lt;sup&gt;b&lt;/sup&gt;&amp;nbsp;mod p&lt;sup&gt;&amp;nbsp;&lt;/sup&gt;&lt;/font&gt;" placeholders="1" name="Variable" id="C-mkIYTrHOIJWP9ktgJM-39">
          <mxCell style="text;strokeColor=none;fillColor=none;align=center;verticalAlign=top;overflow=hidden;labelBackgroundColor=none;labelBorderColor=none;fontSize=14;spacing=0;labelPosition=center;verticalLabelPosition=middle;textDirection=ltr;fontStyle=1;html=1;" vertex="1" parent="WIyWlLk6GJQsqaUBKTNV-1">
            <mxGeometry x="380" y="340" width="220" height="30" as="geometry" />
          </mxCell>
        </UserObject>
        <UserObject label="Через некоторое время Коля&#xa;начал подозревать, что его&#xa;переписку с Ваней читает&#xa;кто-то еще. И они с Ваней&#xa;договорились усложнить &#xa;комбинацию" placeholders="1" name="Variable" id="C-mkIYTrHOIJWP9ktgJM-40">
          <mxCell style="text;strokeColor=none;fillColor=none;align=center;verticalAlign=top;overflow=hidden;labelBackgroundColor=#C2FFD2;labelBorderColor=none;fontSize=14;spacing=0;labelPosition=center;verticalLabelPosition=middle;textDirection=ltr;fontStyle=0" vertex="1" parent="WIyWlLk6GJQsqaUBKTNV-1">
            <mxGeometry x="50" y="370" width="220" height="110" as="geometry" />
          </mxCell>
        </UserObject>
        <UserObject label="Через некоторое время Коля&#xa;начал подозревать, что его&#xa;переписку с Колей читает&#xa;кто-то еще. И они с Колей&#xa;договорились усложнить &#xa;комбинацию" placeholders="1" name="Variable" id="C-mkIYTrHOIJWP9ktgJM-41">
          <mxCell style="text;strokeColor=none;fillColor=none;align=center;verticalAlign=top;overflow=hidden;labelBackgroundColor=#C2FFD2;labelBorderColor=none;fontSize=14;spacing=0;labelPosition=center;verticalLabelPosition=middle;textDirection=ltr;fontStyle=0" vertex="1" parent="WIyWlLk6GJQsqaUBKTNV-1">
            <mxGeometry x="380" y="370" width="220" height="110" as="geometry" />
          </mxCell>
        </UserObject>
        <UserObject label="&lt;font style=&quot;font-size: 18px;&quot;&gt;K = B&lt;sup&gt;a&lt;/sup&gt;&amp;nbsp;mod p&lt;sup&gt;&amp;nbsp;&lt;/sup&gt;&lt;/font&gt;" placeholders="1" name="Variable" id="C-mkIYTrHOIJWP9ktgJM-42">
          <mxCell style="text;strokeColor=none;fillColor=none;align=center;verticalAlign=top;overflow=hidden;labelBackgroundColor=none;labelBorderColor=none;fontSize=14;spacing=0;labelPosition=center;verticalLabelPosition=middle;textDirection=ltr;fontStyle=1;html=1;" vertex="1" parent="WIyWlLk6GJQsqaUBKTNV-1">
            <mxGeometry x="50" y="480" width="220" height="30" as="geometry" />
          </mxCell>
        </UserObject>
        <UserObject label="&lt;font style=&quot;font-size: 18px;&quot;&gt;K = A&lt;sup&gt;b&lt;/sup&gt;&lt;/font&gt;&lt;font style=&quot;&quot;&gt;&lt;span style=&quot;font-size: 18px;&quot;&gt;&amp;nbsp;mod p&lt;/span&gt;&lt;sup style=&quot;font-size: 18px;&quot;&gt;&amp;nbsp;&lt;/sup&gt;&lt;/font&gt;" placeholders="1" name="Variable" id="C-mkIYTrHOIJWP9ktgJM-43">
          <mxCell style="text;strokeColor=none;fillColor=none;align=center;verticalAlign=top;overflow=hidden;labelBackgroundColor=none;labelBorderColor=none;fontSize=14;spacing=0;labelPosition=center;verticalLabelPosition=middle;textDirection=ltr;fontStyle=1;html=1;" vertex="1" parent="WIyWlLk6GJQsqaUBKTNV-1">
            <mxGeometry x="380" y="480" width="220" height="30" as="geometry" />
          </mxCell>
        </UserObject>
        <mxCell id="C-mkIYTrHOIJWP9ktgJM-44" value="" style="shape=singleArrow;direction=west;whiteSpace=wrap;html=1;labelBackgroundColor=none;labelBorderColor=none;fontSize=18;arrowWidth=0.23333333333333334;arrowSize=0.2;rotation=-25;" vertex="1" parent="WIyWlLk6GJQsqaUBKTNV-1">
          <mxGeometry x="370" y="590" width="130" height="30" as="geometry" />
        </mxCell>
        <mxCell id="C-mkIYTrHOIJWP9ktgJM-45" value="" style="shape=singleArrow;direction=south;whiteSpace=wrap;html=1;labelBackgroundColor=none;labelBorderColor=none;fontSize=18;arrowWidth=0.23333333333333334;arrowSize=0.2;rotation=-60;" vertex="1" parent="WIyWlLk6GJQsqaUBKTNV-1">
          <mxGeometry x="220" y="540" width="30" height="130" as="geometry" />
        </mxCell>
        <UserObject label="&lt;font style=&quot;font-size: 36px;&quot;&gt;K = g&lt;sup&gt;ab&lt;/sup&gt;&amp;nbsp;mod p&lt;sup&gt;&amp;nbsp;&lt;/sup&gt;&lt;/font&gt;" placeholders="1" name="Variable" id="C-mkIYTrHOIJWP9ktgJM-50">
          <mxCell style="text;strokeColor=none;fillColor=none;align=center;verticalAlign=top;overflow=hidden;labelBackgroundColor=none;labelBorderColor=none;fontSize=14;spacing=0;labelPosition=center;verticalLabelPosition=middle;textDirection=ltr;fontStyle=1;html=1;" vertex="1" parent="WIyWlLk6GJQsqaUBKTNV-1">
            <mxGeometry x="230" y="640" width="250" height="50" as="geometry" />
          </mxCell>
        </UserObject>
      </root>
    </mxGraphModel>
  </diagram>
</mxfile>
